<svg xmlns="http://www.w3.org/2000/svg" viewBox="0 0 108 108"><defs><style>.cls-1{fill:#fff;stroke:#231f20;stroke-miterlimit:10;stroke-width:6px;}.cls-2{fill:#231f20;}</style></defs><g id="Layer_2" data-name="Layer 2"><g id="Layer_1-2" data-name="Layer 1"><path class="cls-1" d="M105,54A51,51,0,1,1,50.18,3.15c1-.08,2.12-.13,3.19-.14H54A51,51,0,0,1,105,54Z"/><path class="cls-2" d="M32,75.6s8.84-10.11,14.53-6.32a10.89,10.89,0,0,0,12.65-.06C62.33,67.14,73,73.28,73,73.28s-8.63,13.06-19.9,13.06C40.18,86.34,32,75.6,32,75.6Z"/><path class="cls-2" d="M105,54A51,51,0,0,1,80,97.9c-.92-3.1-1.9-6.19-2.92-9.15C70.66,70.21,105,54,77,54S48,20.49,48,20.49A150,150,0,0,1,53.37,3H54A51,51,0,0,1,105,54Z"/><path class="cls-2" d="M52.45,3.15,46.52,20.49s-21.25,1.68-28,25.28C15,58.13,11.7,70.85,11.17,81.71A50.78,50.78,0,0,1,3,54C3,27.12,26.06,5.09,52.45,3.15Z"/></g></g></svg>